<svg xmlns="http://www.w3.org/2000/svg" viewBox="0 0 800 500" fill="none">
  <rect width="800" height="500" fill="#f8f8f8"/>
  <!-- Phone left -->
  <rect x="150" y="60" width="180" height="360" rx="28" fill="white" stroke="#1a1a1a" stroke-width="3"/>
  <rect x="160" y="90" width="160" height="300" fill="#f4f4f4"/>
  <circle cx="240" cy="80" r="6" fill="#1a1a1a"/>
  <rect x="215" y="400" width="50" height="8" rx="4" fill="#1a1a1a"/>
  <!-- App UI on left phone -->
  <rect x="168" y="98" width="144" height="40" fill="#1a1a1a"/>
  <rect x="176" y="150" width="60" height="60" rx="12" fill="#1a1a1a"/>
  <rect x="248" y="150" width="56" height="26" rx="4" fill="#e0e0e0"/>
  <rect x="248" y="184" width="40" height="10" rx="3" fill="#ebebeb"/>
  <rect x="176" y="224" width="128" height="8" rx="3" fill="#e0e0e0"/>
  <rect x="176" y="242" width="100" height="8" rx="3" fill="#ebebeb"/>
  <rect x="176" y="268" width="128" height="40" rx="8" fill="#1a1a1a"/>
  <rect x="176" y="320" width="60" height="60" rx="12" fill="#ebebeb"/>
  <rect x="248" y="320" width="56" height="60" rx="12" fill="#ebebeb"/>
  <!-- Phone right -->
  <rect x="470" y="80" width="180" height="360" rx="28" fill="white" stroke="#1a1a1a" stroke-width="3"/>
  <rect x="480" y="110" width="160" height="300" fill="#f4f4f4"/>
  <circle cx="560" cy="100" r="6" fill="#1a1a1a"/>
  <rect x="535" y="416" width="50" height="8" rx="4" fill="#1a1a1a"/>
  <!-- App UI on right phone -->
  <rect x="488" y="118" width="144" height="280" fill="white"/>
  <rect x="488" y="118" width="144" height="50" fill="#1a1a1a"/>
  <circle cx="520" cy="143" r="16" fill="white" opacity="0.2"/>
  <rect x="544" y="136" width="70" height="10" rx="3" fill="white" opacity="0.5"/>
  <rect x="544" y="153" width="50" height="8" rx="3" fill="white" opacity="0.3"/>
  <rect x="496" y="180" width="128" height="80" rx="6" fill="#f0f0f0"/>
  <rect x="496" y="272" width="60" height="56" rx="6" fill="#1a1a1a"/>
  <rect x="564" y="272" width="60" height="56" rx="6" fill="#e8e8e8"/>
  <rect x="496" y="338" width="128" height="10" rx="3" fill="#e0e0e0"/>
  <rect x="496" y="356" width="90" height="10" rx="3" fill="#ebebeb"/>
  <!-- Connection lines -->
  <path d="M330 240 Q400 200 470 240" stroke="#1a1a1a" stroke-width="2" stroke-dasharray="6,4"/>
  <circle cx="400" cy="210" r="24" fill="white" stroke="#1a1a1a" stroke-width="2"/>
  <text x="400" y="218" text-anchor="middle" font-family="sans-serif" font-size="18" fill="#1a1a1a">⚡</text>
</svg>