<svg xmlns="http://www.w3.org/2000/svg" viewBox="0 0 800 500" fill="none">
  <rect width="800" height="500" fill="#f8f8f8"/>
  <!-- Figma-style frame left: wireframe -->
  <rect x="60" y="80" width="200" height="340" rx="12" fill="white" stroke="#1a1a1a" stroke-width="2"/>
  <text x="160" y="68" text-anchor="middle" font-family="sans-serif" font-size="11" fill="#888">Wireframe</text>
  <rect x="76" y="100" width="168" height="24" rx="3" fill="#e8e8e8"/>
  <rect x="76" y="136" width="168" height="100" rx="3" fill="#f0f0f0" stroke="#ddd" stroke-width="1"/>
  <line x1="76" y1="136" x2="244" y2="236" stroke="#e0e0e0" stroke-width="1"/>
  <line x1="244" y1="136" x2="76" y2="236" stroke="#e0e0e0" stroke-width="1"/>
  <rect x="76" y="252" width="80" height="10" rx="2" fill="#e0e0e0"/>
  <rect x="76" y="270" width="168" height="8" rx="2" fill="#ebebeb"/>
  <rect x="76" y="286" width="140" height="8" rx="2" fill="#ebebeb"/>
  <rect x="96" y="310" width="128" height="32" rx="16" fill="#d0d0d0"/>
  <rect x="76" y="356" width="70" height="50" rx="4" fill="#ebebeb"/>
  <rect x="156" y="356" width="56" height="50" rx="4" fill="#ebebeb"/>
  <rect x="222" y="356" width="22" height="50" rx="4" fill="#ebebeb"/>
  <!-- Arrow -->
  <line x1="278" y1="250" x2="340" y2="250" stroke="#1a1a1a" stroke-width="2.5"/>
  <polygon points="340,250 326,243 326,257" fill="#1a1a1a"/>
  <!-- Figma-style frame right: hi-fi -->
  <rect x="358" y="80" width="200" height="340" rx="12" fill="white" stroke="#1a1a1a" stroke-width="2"/>
  <text x="458" y="68" text-anchor="middle" font-family="sans-serif" font-size="11" fill="#888">Hi-Fidelity UI</text>
  <rect x="358" y="80" width="200" height="60" fill="#1a1a1a" rx="12"/>
  <rect x="358" y="120" width="200" height="20" fill="#1a1a1a"/>
  <text x="458" y="116" text-anchor="middle" font-family="sans-serif" font-size="13" font-weight="bold" fill="white">MyApp</text>
  <rect x="374" y="160" width="168" height="110" rx="8" fill="#f0f0f0"/>
  <rect x="374" y="282" width="80" height="14" rx="3" fill="#1a1a1a"/>
  <rect x="374" y="304" width="168" height="8" rx="2" fill="#e0e0e0"/>
  <rect x="374" y="320" width="140" height="8" rx="2" fill="#ebebeb"/>
  <rect x="394" y="344" width="128" height="36" rx="18" fill="#1a1a1a"/>
  <text x="458" y="366" text-anchor="middle" font-family="sans-serif" font-size="12" fill="white">Get Started</text>
  <!-- Component panel right -->
  <rect x="600" y="80" width="160" height="340" rx="8" fill="white" stroke="#ddd" stroke-width="1"/>
  <text x="680" y="68" text-anchor="middle" font-family="sans-serif" font-size="11" fill="#888">Components</text>
  <rect x="616" y="96" width="128" height="32" rx="16" fill="#1a1a1a"/>
  <rect x="616" y="140" width="128" height="32" rx="8" fill="#f0f0f0" stroke="#ddd" stroke-width="1"/>
  <rect x="616" y="184" width="128" height="24" rx="4" fill="#ebebeb"/>
  <rect x="616" y="220" width="60" height="60" rx="8" fill="#e8e8e8"/>
  <rect x="684" y="220" width="60" height="60" rx="8" fill="#1a1a1a"/>
  <rect x="616" y="296" width="128" height="8" rx="2" fill="#e0e0e0"/>
  <rect x="616" y="312" width="100" height="8" rx="2" fill="#ebebeb"/>
  <rect x="616" y="328" width="128" height="8" rx="2" fill="#e0e0e0"/>
</svg>