<svg xmlns="http://www.w3.org/2000/svg" viewBox="0 0 800 500" fill="none">
  <rect width="800" height="500" fill="#f8f8f8"/>
  <!-- Grid lines -->
  <line x1="0" y1="100" x2="800" y2="100" stroke="#e0e0e0" stroke-width="1"/>
  <line x1="0" y1="200" x2="800" y2="200" stroke="#e0e0e0" stroke-width="1"/>
  <line x1="0" y1="300" x2="800" y2="300" stroke="#e0e0e0" stroke-width="1"/>
  <line x1="0" y1="400" x2="800" y2="400" stroke="#e0e0e0" stroke-width="1"/>
  <!-- Bar chart -->
  <rect x="80" y="320" width="60" height="120" fill="#1a1a1a" rx="4"/>
  <rect x="180" y="260" width="60" height="180" fill="#1a1a1a" rx="4"/>
  <rect x="280" y="200" width="60" height="240" fill="#1a1a1a" rx="4"/>
  <rect x="380" y="140" width="60" height="300" fill="#1a1a1a" rx="4"/>
  <rect x="480" y="80" width="60" height="360" fill="#0d0d0d" rx="4"/>
  <!-- Growth arrow -->
  <polyline points="80,370 180,310 280,250 380,190 480,130 600,60" stroke="#1a1a1a" stroke-width="3" stroke-dasharray="8,4" fill="none"/>
  <polygon points="600,60 580,75 615,78" fill="#1a1a1a"/>
  <!-- Social icons circles -->
  <circle cx="660" cy="140" r="40" fill="white" stroke="#1a1a1a" stroke-width="2"/>
  <text x="660" y="148" text-anchor="middle" font-family="sans-serif" font-size="22" fill="#1a1a1a">f</text>
  <circle cx="660" cy="240" r="40" fill="#1a1a1a"/>
  <text x="660" y="248" text-anchor="middle" font-family="sans-serif" font-size="18" fill="white">in</text>
  <circle cx="660" cy="340" r="40" fill="white" stroke="#1a1a1a" stroke-width="2"/>
  <text x="660" y="348" text-anchor="middle" font-family="sans-serif" font-size="20" fill="#1a1a1a">✕</text>
  <!-- Connecting lines from bars to icons -->
  <line x1="540" y1="140" x2="618" y2="140" stroke="#ccc" stroke-width="1" stroke-dasharray="4,3"/>
  <line x1="540" y1="240" x2="618" y2="240" stroke="#ccc" stroke-width="1" stroke-dasharray="4,3"/>
  <line x1="540" y1="340" x2="618" y2="340" stroke="#ccc" stroke-width="1" stroke-dasharray="4,3"/>
  <!-- Labels -->
  <text x="110" y="468" text-anchor="middle" font-family="sans-serif" font-size="13" fill="#888">Q1</text>
  <text x="210" y="468" text-anchor="middle" font-family="sans-serif" font-size="13" fill="#888">Q2</text>
  <text x="310" y="468" text-anchor="middle" font-family="sans-serif" font-size="13" fill="#888">Q3</text>
  <text x="410" y="468" text-anchor="middle" font-family="sans-serif" font-size="13" fill="#888">Q4</text>
  <text x="510" y="468" text-anchor="middle" font-family="sans-serif" font-size="13" fill="#888">Q5</text>
  <text x="400" y="30" text-anchor="middle" font-family="sans-serif" font-size="16" font-weight="bold" fill="#1a1a1a">GROWTH PERFORMANCE</text>
</svg>