<svg xmlns="http://www.w3.org/2000/svg" viewBox="0 0 800 500" fill="none">
  <rect width="800" height="500" fill="#f8f8f8"/>
  <!-- Browser chrome -->
  <rect x="80" y="60" width="640" height="380" rx="10" fill="white" stroke="#1a1a1a" stroke-width="2.5"/>
  <rect x="80" y="60" width="640" height="50" rx="10" fill="#1a1a1a"/>
  <rect x="80" y="90" width="640" height="20" fill="#1a1a1a"/>
  <circle cx="112" cy="85" r="8" fill="#444"/>
  <circle cx="136" cy="85" r="8" fill="#555"/>
  <circle cx="160" cy="85" r="8" fill="#666"/>
  <rect x="190" y="73" width="350" height="24" rx="12" fill="#2a2a2a"/>
  <!-- UI layout -->
  <rect x="96" y="128" width="608" height="60" fill="#f4f4f4" stroke="#e8e8e8" stroke-width="1"/>
  <rect x="112" y="143" width="80" height="28" rx="6" fill="#1a1a1a"/>
  <rect x="510" y="143" width="80" height="28" rx="14" fill="#1a1a1a"/>
  <rect x="600" y="143" width="80" height="28" rx="14" fill="white" stroke="#1a1a1a" stroke-width="1.5"/>
  <!-- Hero block -->
  <rect x="96" y="204" width="608" height="140" fill="#1a1a1a"/>
  <rect x="120" y="228" width="200" height="20" rx="4" fill="white" opacity="0.5"/>
  <rect x="120" y="258" width="280" height="16" rx="4" fill="white" opacity="0.3"/>
  <rect x="120" y="280" width="100" height="36" rx="18" fill="white"/>
  <!-- Cards row -->
  <rect x="96" y="360" width="192" height="70" rx="8" fill="#f4f4f4" stroke="#e8e8e8" stroke-width="1"/>
  <rect x="304" y="360" width="192" height="70" rx="8" fill="#f4f4f4" stroke="#e8e8e8" stroke-width="1"/>
  <rect x="512" y="360" width="192" height="70" rx="8" fill="#f4f4f4" stroke="#e8e8e8" stroke-width="1"/>
  <!-- Pixel ruler overlay -->
  <rect x="80" y="432" width="640" height="8" fill="none" stroke="#1a1a1a" stroke-width="1" stroke-dasharray="2,8"/>
  <text x="720" y="438" font-family="monospace" font-size="10" fill="#888">px</text>
</svg>