<svg xmlns="http://www.w3.org/2000/svg" viewBox="0 0 800 500" fill="none">
  <rect width="800" height="500" fill="#f8f8f8"/>
  <!-- iOS phone -->
  <rect x="120" y="50" width="200" height="400" rx="32" fill="white" stroke="#1a1a1a" stroke-width="3"/>
  <rect x="130" y="80" width="180" height="340" rx="8" fill="#f4f4f4"/>
  <!-- Dynamic island -->
  <rect x="185" y="62" width="70" height="20" rx="10" fill="#1a1a1a"/>
  <!-- Home indicator -->
  <rect x="191" y="432" width="58" height="5" rx="3" fill="#1a1a1a"/>
  <!-- iOS app screen -->
  <rect x="130" y="80" width="180" height="60" fill="#1a1a1a" rx="8"/>
  <text x="220" y="116" text-anchor="middle" font-family="sans-serif" font-size="14" font-weight="bold" fill="white">MyApp</text>
  <!-- App grid -->
  <rect x="144" y="156" width="44" height="44" rx="10" fill="#1a1a1a"/>
  <rect x="198" y="156" width="44" height="44" rx="10" fill="#555"/>
  <rect x="252" y="156" width="44" height="44" rx="10" fill="#888"/>
  <rect x="144" y="212" width="44" height="44" rx="10" fill="#aaa"/>
  <rect x="198" y="212" width="44" height="44" rx="10" fill="#1a1a1a"/>
  <rect x="252" y="212" width="44" height="44" rx="10" fill="#555"/>
  <rect x="144" y="280" width="152" height="100" rx="10" fill="#e8e8e8"/>
  <!-- Android phone -->
  <rect x="480" y="50" width="200" height="400" rx="20" fill="white" stroke="#1a1a1a" stroke-width="3"/>
  <rect x="490" y="75" width="180" height="350" rx="6" fill="#f4f4f4"/>
  <!-- Camera dot -->
  <circle cx="580" cy="63" r="8" fill="#1a1a1a"/>
  <!-- Android nav bar -->
  <rect x="490" y="400" width="180" height="25" fill="#e8e8e8" rx="4"/>
  <circle cx="540" cy="413" r="8" fill="none" stroke="#1a1a1a" stroke-width="1.5"/>
  <rect x="571" y="407" width="16" height="12" rx="2" fill="none" stroke="#1a1a1a" stroke-width="1.5"/>
  <path d="M610,407 L618,413 L610,419" stroke="#1a1a1a" stroke-width="1.5" fill="none"/>
  <!-- Android app screen -->
  <rect x="490" y="75" width="180" height="56" fill="#1a1a1a"/>
  <text x="580" y="108" text-anchor="middle" font-family="sans-serif" font-size="14" font-weight="bold" fill="white">MyApp</text>
  <!-- Material cards -->
  <rect x="502" y="144" width="156" height="80" rx="8" fill="white" stroke="#e0e0e0" stroke-width="1"/>
  <rect x="512" y="154" width="80" height="12" rx="3" fill="#1a1a1a"/>
  <rect x="512" y="174" width="136" height="8" rx="2" fill="#e0e0e0"/>
  <rect x="512" y="190" width="110" height="8" rx="2" fill="#ebebeb"/>
  <rect x="502" y="238" width="156" height="80" rx="8" fill="#1a1a1a"/>
  <rect x="512" y="250" width="80" height="12" rx="3" fill="white" opacity="0.6"/>
  <rect x="512" y="270" width="136" height="8" rx="2" fill="white" opacity="0.3"/>
  <!-- Connecting bridge -->
  <path d="M320 250 Q400 220 480 250" stroke="#1a1a1a" stroke-width="2.5" stroke-dasharray="8,5" fill="none"/>
  <text x="400" y="210" text-anchor="middle" font-family="sans-serif" font-size="12" fill="#888">cross-platform</text>
</svg>