<svg xmlns="http://www.w3.org/2000/svg" viewBox="0 0 800 500" fill="none">
  <rect width="800" height="500" fill="#f8f8f8"/>
  <!-- 3D Box isometric -->
  <!-- Top face -->
  <polygon points="300,100 500,100 560,160 360,160" fill="#e8e8e8" stroke="#1a1a1a" stroke-width="2"/>
  <!-- Front face -->
  <polygon points="300,100 360,160 360,360 300,300" fill="white" stroke="#1a1a1a" stroke-width="2"/>
  <!-- Right face -->
  <polygon points="500,100 560,160 560,360 500,300" fill="#f4f4f4" stroke="#1a1a1a" stroke-width="2"/>
  <!-- Front bottom -->
  <polygon points="300,300 360,360 560,360 500,300" fill="#ececec" stroke="#1a1a1a" stroke-width="2"/>
  <!-- Logo on front face -->
  <circle cx="330" cy="200" r="28" fill="#1a1a1a"/>
  <text x="330" y="208" text-anchor="middle" font-family="serif" font-size="18" font-weight="bold" fill="white">8</text>
  <!-- Brand text on front -->
  <text x="330" y="250" font-family="sans-serif" font-size="11" font-weight="bold" fill="#1a1a1a">8dots</text>
  <!-- Business card beside -->
  <rect x="600" y="120" width="160" height="90" rx="6" fill="#1a1a1a"/>
  <circle cx="630" cy="155" r="20" fill="white" opacity="0.15"/>
  <circle cx="630" cy="155" r="13" fill="white"/>
  <text x="630" y="161" text-anchor="middle" font-family="serif" font-size="10" font-weight="bold" fill="#1a1a1a">8</text>
  <rect x="654" y="148" width="80" height="8" rx="2" fill="white" opacity="0.7"/>
  <rect x="654" y="162" width="60" height="6" rx="2" fill="white" opacity="0.4"/>
  <rect x="614" y="186" width="132" height="6" rx="2" fill="white" opacity="0.3"/>
  <rect x="614" y="198" width="100" height="5" rx="2" fill="white" opacity="0.2"/>
  <!-- Brochure below -->
  <rect x="600" y="240" width="160" height="200" rx="6" fill="white" stroke="#1a1a1a" stroke-width="1.5"/>
  <rect x="600" y="240" width="160" height="80" fill="#1a1a1a" rx="6"/>
  <rect x="600" y="300" width="160" height="20" fill="#1a1a1a"/>
  <rect x="616" y="260" width="100" height="12" rx="3" fill="white" opacity="0.6"/>
  <rect x="616" y="280" width="80" height="10" rx="2" fill="white" opacity="0.3"/>
  <rect x="616" y="336" width="128" height="8" rx="2" fill="#e0e0e0"/>
  <rect x="616" y="352" width="110" height="8" rx="2" fill="#ebebeb"/>
  <rect x="616" y="368" width="128" height="8" rx="2" fill="#e0e0e0"/>
  <rect x="616" y="392" width="100" height="28" rx="14" fill="#1a1a1a"/>
  <text x="666" y="410" text-anchor="middle" font-family="sans-serif" font-size="10" fill="white">Learn More</text>
  <!-- Dieline hint bottom left -->
  <rect x="60" y="340" width="200" height="120" rx="4" fill="none" stroke="#bbb" stroke-width="1.5" stroke-dasharray="6,4"/>
  <line x1="160" y1="340" x2="160" y2="460" stroke="#bbb" stroke-width="1" stroke-dasharray="4,3"/>
  <line x1="60" y1="400" x2="260" y2="400" stroke="#bbb" stroke-width="1" stroke-dasharray="4,3"/>
  <text x="160" y="385" text-anchor="middle" font-family="monospace" font-size="11" fill="#bbb">DIELINE</text>
</svg>